<svg width="20" height="20" viewBox="0 0 20 20" fill="none" xmlns="http://www.w3.org/2000/svg">
<g clip-path="url(#clip0_437_7889)">
<mask id="mask0_437_7889" style="mask-type:alpha" maskUnits="userSpaceOnUse" x="0" y="0" width="20" height="20">
<rect width="20" height="20" fill="#D9D9D9"/>
</mask>
<g mask="url(#mask0_437_7889)">
<path d="M4.5 17C4.0875 17 3.73437 16.8531 3.44062 16.5594C3.14687 16.2656 3 15.9125 3 15.5V12.75C3 12.5375 3.07146 12.3594 3.21437 12.2156C3.35729 12.0719 3.53437 12 3.74562 12C3.95687 12 4.13542 12.0719 4.28125 12.2156C4.42708 12.3594 4.5 12.5375 4.5 12.75V15.5H7.25C7.4625 15.5 7.64063 15.5715 7.78438 15.7144C7.92813 15.8573 8 16.0344 8 16.2456C8 16.4569 7.92813 16.6354 7.78438 16.7812C7.64063 16.9271 7.4625 17 7.25 17H4.5ZM15.5 17H12.75C12.5375 17 12.3594 16.9285 12.2156 16.7856C12.0719 16.6427 12 16.4656 12 16.2544C12 16.0431 12.0719 15.8646 12.2156 15.7188C12.3594 15.5729 12.5375 15.5 12.75 15.5H15.5V12.75C15.5 12.5375 15.5715 12.3594 15.7144 12.2156C15.8573 12.0719 16.0344 12 16.2456 12C16.4569 12 16.6354 12.0719 16.7812 12.2156C16.9271 12.3594 17 12.5375 17 12.75V15.5C17 15.9125 16.8531 16.2656 16.5594 16.5594C16.2656 16.8531 15.9125 17 15.5 17ZM3 7.25V4.5C3 4.0875 3.14687 3.73438 3.44062 3.44063C3.73437 3.14688 4.0875 3 4.5 3H7.25C7.4625 3 7.64063 3.07146 7.78438 3.21437C7.92813 3.35729 8 3.53437 8 3.74562C8 3.95687 7.92813 4.13542 7.78438 4.28125C7.64063 4.42708 7.4625 4.5 7.25 4.5H4.5V7.25C4.5 7.4625 4.42854 7.64063 4.28563 7.78438C4.14271 7.92813 3.96563 8 3.75438 8C3.54313 8 3.36458 7.92813 3.21875 7.78438C3.07292 7.64063 3 7.4625 3 7.25ZM15.5 7.25V4.5H12.75C12.5375 4.5 12.3594 4.42854 12.2156 4.28563C12.0719 4.14271 12 3.96563 12 3.75438C12 3.54313 12.0719 3.36458 12.2156 3.21875C12.3594 3.07292 12.5375 3 12.75 3H15.5C15.9125 3 16.2656 3.14688 16.5594 3.44063C16.8531 3.73438 17 4.0875 17 4.5V7.25C17 7.4625 16.9285 7.64063 16.7856 7.78438C16.6427 7.92813 16.4656 8 16.2544 8C16.0431 8 15.8646 7.92813 15.7188 7.78438C15.5729 7.64063 15.5 7.4625 15.5 7.25ZM10 13C9.16667 13 8.45833 12.7083 7.875 12.125C7.29167 11.5417 7 10.8333 7 10C7 9.16667 7.29167 8.45833 7.875 7.875C8.45833 7.29167 9.16667 7 10 7C10.8333 7 11.5417 7.29167 12.125 7.875C12.7083 8.45833 13 9.16667 13 10C13 10.8333 12.7083 11.5417 12.125 12.125C11.5417 12.7083 10.8333 13 10 13ZM10.0044 11.5C10.4181 11.5 10.7708 11.3527 11.0625 11.0581C11.3542 10.7635 11.5 10.4094 11.5 9.99563C11.5 9.58188 11.3527 9.22917 11.0581 8.9375C10.7635 8.64583 10.4094 8.5 9.99563 8.5C9.58188 8.5 9.22917 8.64729 8.9375 8.94188C8.64583 9.23646 8.5 9.59062 8.5 10.0044C8.5 10.4181 8.64729 10.7708 8.94187 11.0625C9.23646 11.3542 9.59062 11.5 10.0044 11.5Z" fill="#BAC8DE"/>
</g>
</g>
<defs>
<clipPath id="clip0_437_7889">
<rect width="20" height="20" fill="white"/>
</clipPath>
</defs>
</svg>
